<svg width="50" height="50" viewBox="0 0 50 50" fill="none" xmlns="http://www.w3.org/2000/svg">
<path d="M25 45.8332C36.5059 45.8332 45.8333 36.5058 45.8333 24.9998C45.8333 13.4939 36.5059 4.1665 25 4.1665C13.494 4.1665 4.16663 13.4939 4.16663 24.9998C4.16663 36.5058 13.494 45.8332 25 45.8332Z" stroke="white" stroke-width="2" stroke-linecap="round" stroke-linejoin="round"/>
<path d="M16.6667 6.25H18.75C14.6875 18.4167 14.6875 31.5833 18.75 43.75H16.6667" stroke="white" stroke-width="2" stroke-linecap="round" stroke-linejoin="round"/>
<path d="M31.25 6.25C35.3125 18.4167 35.3125 31.5833 31.25 43.75" stroke="white" stroke-width="2" stroke-linecap="round" stroke-linejoin="round"/>
<path d="M6.25 33.3333V31.25C18.4167 35.3125 31.5833 35.3125 43.75 31.25V33.3333" stroke="white" stroke-width="2" stroke-linecap="round" stroke-linejoin="round"/>
<path d="M6.25 18.75C18.4167 14.6875 31.5833 14.6875 43.75 18.75" stroke="white" stroke-width="2" stroke-linecap="round" stroke-linejoin="round"/>
</svg>
