<svg width="50" height="50" viewBox="0 0 50 50" fill="none" xmlns="http://www.w3.org/2000/svg">
<path d="M27.0833 37.5H6.24996C5.09937 37.5 4.16663 36.5673 4.16663 35.4167V8.33333C4.16663 7.18274 5.09937 6.25 6.24996 6.25H43.75C44.9006 6.25 45.8333 7.18274 45.8333 8.33333V35.4167C45.8333 36.5673 44.9006 37.5 43.75 37.5H35.4166" stroke="white" stroke-width="2" stroke-linecap="round" stroke-linejoin="round"/>
<path d="M12.5 14.5835H37.5" stroke="white" stroke-width="2" stroke-linecap="round" stroke-linejoin="round"/>
<path d="M12.5 21.875H18.75" stroke="white" stroke-width="2" stroke-linecap="round" stroke-linejoin="round"/>
<path d="M12.5 29.1665H16.6667" stroke="white" stroke-width="2" stroke-linecap="round" stroke-linejoin="round"/>
<path d="M31.25 34.375C34.7018 34.375 37.5 31.5768 37.5 28.125C37.5 24.6732 34.7018 21.875 31.25 21.875C27.7982 21.875 25 24.6732 25 28.125C25 31.5768 27.7982 34.375 31.25 34.375Z" stroke="white" stroke-width="2"/>
<path d="M31.25 41.6668L35.4167 43.7502V32.7837C35.4167 32.7837 34.2286 34.3751 31.25 34.3751C28.2715 34.3751 27.0834 32.8126 27.0834 32.8126V43.7502L31.25 41.6668Z" stroke="white" stroke-width="2" stroke-linecap="round" stroke-linejoin="round"/>
</svg>
