<svg width="50" height="50" viewBox="0 0 50 50" fill="none" xmlns="http://www.w3.org/2000/svg">
<path d="M45.832 12.5H8.16536C5.95623 12.5 4.16536 14.2909 4.16536 16.5V41.8333C4.16536 44.0425 5.95622 45.8333 8.16536 45.8333H41.832C44.0412 45.8333 45.832 44.0425 45.832 41.8333V12.5Z" stroke="white" stroke-width="2" stroke-linejoin="round"/>
<path d="M45.832 8.16651C45.832 5.95737 44.0412 4.1665 41.832 4.1665H20.6654C18.4562 4.1665 16.6654 5.95736 16.6654 8.1665V12.4998H45.832V8.16651Z" stroke="white" stroke-width="2" stroke-linejoin="round"/>
<path d="M4.16797 25L4.16797 33.3333L12.5013 33.3333C14.8025 33.3333 16.668 31.4679 16.668 29.1667V29.1667C16.668 26.8655 14.8025 25 12.5013 25L4.16797 25Z" stroke="white" stroke-width="2" stroke-linejoin="round"/>
</svg>
