<svg width="50" height="50" viewBox="0 0 50 50" fill="none" xmlns="http://www.w3.org/2000/svg">
<path d="M43.4451 33.5612L42.5923 33.039V33.039L43.4451 33.5612ZM41.377 36.9387L42.2298 37.4609L41.377 36.9387ZM5.55486 17.4387L4.70205 16.9165L4.70205 16.9165L5.55486 17.4387ZM7.62305 14.0612L8.47587 14.5835V14.5835L7.62305 14.0612ZM13.2734 12.6337L13.7516 11.7554L13.7516 11.7554L13.2734 12.6337ZM7.06888 22.7662L6.59077 23.6445H6.59077L7.06888 22.7662ZM35.7266 38.3662L36.2047 37.4879L36.2047 37.4879L35.7266 38.3662ZM41.9311 28.2337L41.453 29.112L41.9311 28.2337ZM7.62305 36.9388L6.77024 37.461H6.77024L7.62305 36.9388ZM5.55486 33.5613L6.40767 33.039H6.40767L5.55486 33.5613ZM41.377 14.0613L42.2298 13.5391V13.539L41.377 14.0613ZM43.4451 17.4388L42.5923 17.961V17.961L43.4451 17.4388ZM41.9311 22.7663L42.4092 23.6446L41.9311 22.7663ZM35.7266 12.6338L35.2484 11.7555V11.7555L35.7266 12.6338ZM7.06888 28.2338L7.54699 29.1121H7.54699L7.06888 28.2338ZM13.2734 38.3663L12.7953 37.488L12.7953 37.488L13.2734 38.3663ZM35.5067 12.7534L35.9848 13.6318L35.9848 13.6317L35.5067 12.7534ZM13.4933 12.7534L13.0152 13.6317L13.0152 13.6317L13.4933 12.7534ZM35.5067 38.2465L35.0286 39.1248L35.0286 39.1249L35.5067 38.2465ZM13.4933 38.2466L13.9714 39.1249L13.9714 39.1249L13.4933 38.2466ZM22.4318 7H26.5682V5H22.4318V7ZM26.5682 44H22.4318V46H26.5682V44ZM22.4318 44C20.6434 44 19.2954 42.647 19.2954 41.1H17.2954C17.2954 43.8608 19.6513 46 22.4318 46V44ZM29.7046 41.1C29.7046 42.647 28.3566 44 26.5682 44V46C29.3487 46 31.7046 43.8608 31.7046 41.1H29.7046ZM26.5682 7C28.3566 7 29.7046 8.353 29.7046 9.9H31.7046C31.7046 7.13918 29.3487 5 26.5682 5V7ZM22.4318 5C19.6513 5 17.2954 7.13918 17.2954 9.9H19.2954C19.2954 8.353 20.6434 7 22.4318 7V5ZM42.5923 33.039L40.5241 36.4165L42.2298 37.4609L44.298 34.0834L42.5923 33.039ZM6.40768 17.9609L8.47587 14.5835L6.77024 13.539L4.70205 16.9165L6.40768 17.9609ZM8.47587 14.5835C9.3267 13.194 11.2619 12.6773 12.7953 13.512L13.7516 11.7554C11.3282 10.4363 8.20386 11.1978 6.77024 13.539L8.47587 14.5835ZM7.54699 21.8879C6.04475 21.0702 5.57982 19.3129 6.40768 17.9609L4.70205 16.9165C3.24545 19.2953 4.13622 22.3084 6.59077 23.6445L7.54699 21.8879ZM40.5241 36.4165C39.6733 37.806 37.7381 38.3227 36.2047 37.4879L35.2484 39.2445C37.6718 40.5637 40.7961 39.8022 42.2298 37.4609L40.5241 36.4165ZM44.298 34.0834C45.7546 31.7047 44.8638 28.6916 42.4092 27.3554L41.453 29.112C42.9552 29.9298 43.4202 31.6871 42.5923 33.039L44.298 34.0834ZM8.47586 36.4165L6.40767 33.039L4.70205 34.0835L6.77024 37.461L8.47586 36.4165ZM40.5241 14.5835L42.5923 17.961L44.298 16.9165L42.2298 13.5391L40.5241 14.5835ZM42.5923 17.961C43.4202 19.3129 42.9552 21.0702 41.453 21.888L42.4092 23.6446C44.8638 22.3084 45.7546 19.2953 44.298 16.9165L42.5923 17.961ZM36.2047 13.5121C37.7381 12.6773 39.6733 13.194 40.5241 14.5835L42.2298 13.539C40.7961 11.1978 37.6718 10.4363 35.2484 11.7555L36.2047 13.5121ZM6.40767 33.039C5.57982 31.6871 6.04475 29.9298 7.54699 29.1121L6.59077 27.3555C4.13621 28.6916 3.24544 31.7047 4.70205 34.0835L6.40767 33.039ZM6.77024 37.461C8.20386 39.8022 11.3282 40.5637 13.7516 39.2446L12.7953 37.488C11.2619 38.3227 9.3267 37.806 8.47586 36.4165L6.77024 37.461ZM35.9848 13.6317L36.2047 13.5121L35.2484 11.7555L35.0286 11.8751L35.9848 13.6317ZM12.7953 13.512L13.0152 13.6317L13.9714 11.8751L13.7516 11.7554L12.7953 13.512ZM36.2047 37.4879L35.9848 37.3682L35.0286 39.1249L35.2485 39.2445L36.2047 37.4879ZM13.0152 37.3683L12.7953 37.488L13.7516 39.2446L13.9714 39.1249L13.0152 37.3683ZM6.59077 23.6445C8.06081 24.4448 8.06081 26.5552 6.59077 27.3555L7.54699 29.1121C10.4087 27.5543 10.4087 23.4457 7.54699 21.8879L6.59077 23.6445ZM13.9714 39.1249C15.4699 38.3091 17.2954 39.3939 17.2954 41.1H19.2954C19.2954 37.8765 15.8464 35.8271 13.0152 37.3683L13.9714 39.1249ZM31.7046 41.1C31.7046 39.3938 33.5301 38.3091 35.0286 39.1248L35.9848 37.3682C33.1536 35.8271 29.7046 37.8765 29.7046 41.1H31.7046ZM42.4092 27.3554C40.9392 26.5552 40.9392 24.4448 42.4092 23.6446L41.453 21.888C38.5913 23.4458 38.5913 27.5542 41.453 29.112L42.4092 27.3554ZM13.0152 13.6317C15.8464 15.1729 19.2954 13.1235 19.2954 9.9H17.2954C17.2954 11.6061 15.4699 12.6909 13.9714 11.8751L13.0152 13.6317ZM35.0286 11.8751C33.5301 12.6909 31.7046 11.6062 31.7046 9.9H29.7046C29.7046 13.1235 33.1536 15.1729 35.9848 13.6318L35.0286 11.8751ZM30 25.5C30 28.5376 27.5376 31 24.5 31V33C28.6422 33 32 29.6421 32 25.5H30ZM24.5 31C21.4625 31 19 28.5376 19 25.5H17C17 29.6421 20.3579 33 24.5 33V31ZM19 25.5C19 22.4624 21.4625 20 24.5 20V18C20.3579 18 17 21.3579 17 25.5H19ZM24.5 20C27.5376 20 30 22.4624 30 25.5H32C32 21.3579 28.6422 18 24.5 18V20Z" fill="white"/>
</svg>
