<svg width="50" height="50" viewBox="0 0 50 50" fill="none" xmlns="http://www.w3.org/2000/svg">
<path d="M43.75 27.0832V31.2498C43.75 34.7016 40.9518 37.4998 37.5 37.4998C34.0482 37.4998 31.25 34.7016 31.25 31.2498V27.0832C31.25 23.6314 34.0482 20.8332 37.5 20.8332C40.9518 20.8332 43.75 23.6314 43.75 27.0832ZM43.75 27.0832V22.9165C43.75 12.5612 35.3553 4.1665 25 4.1665C14.6447 4.1665 6.25 12.5612 6.25 22.9165V27.0832M6.25 27.0832V31.2498C6.25 34.7016 9.04822 37.4998 12.5 37.4998C15.9518 37.4998 18.75 34.7016 18.75 31.2498V27.0832C18.75 23.6314 15.9518 20.8332 12.5 20.8332C9.04822 20.8332 6.25 23.6314 6.25 27.0832ZM43.75 29.1665V33.3332C43.75 40.2367 38.1536 45.8332 31.25 45.8332H25" stroke="white" stroke-width="2" stroke-linecap="round" stroke-linejoin="round"/>
</svg>
