<svg width="32" height="32" viewBox="0 0 32 32" fill="none" xmlns="http://www.w3.org/2000/svg">
<path d="M16.0026 25.3328H18.6693V7.99949L27.1946 11.6528C27.4346 11.7557 27.6391 11.9268 27.7828 12.1449C27.9264 12.3629 28.0028 12.6184 28.0026 12.8795V25.3328H30.6693V27.9995H1.33594V25.3328H4.0026V7.53282C4.00257 7.27485 4.07738 7.0224 4.21796 6.80609C4.35853 6.58978 4.55885 6.4189 4.7946 6.31416L15.0653 1.74883C15.1669 1.70368 15.2782 1.68467 15.389 1.69352C15.4998 1.70237 15.6067 1.7388 15.6999 1.79949C15.793 1.86018 15.8695 1.94321 15.9224 2.04102C15.9753 2.13883 16.0028 2.24831 16.0026 2.35949V25.3328Z" fill="#D62214"/>
</svg>
