<svg width="32" height="32" viewBox="0 0 32 32" fill="none" xmlns="http://www.w3.org/2000/svg">
<path d="M7.11141 6.05977C8.48039 4.83348 10.0883 3.90376 11.8341 3.3291C12.3333 3.95447 12.967 4.45927 13.6881 4.80599C14.4092 5.15271 15.1993 5.33242 15.9994 5.33177C16.7996 5.33242 17.5896 5.15271 18.3107 4.80599C19.0319 4.45927 19.6656 3.95447 20.1647 3.3291C21.9105 3.90376 23.5184 4.83348 24.8874 6.05977C24.5961 6.80437 24.4762 7.60502 24.5367 8.40229C24.5972 9.19956 24.8364 9.97297 25.2367 10.6651C25.6362 11.3586 26.1869 11.953 26.8478 12.4043C27.5087 12.8556 28.2628 13.1521 29.0541 13.2718C29.4281 15.0703 29.4281 16.9266 29.0541 18.7251C27.5074 18.9624 26.0807 19.8718 25.2367 21.3318C24.8362 22.0241 24.5969 22.7977 24.5364 23.5952C24.4759 24.3928 24.5959 25.1937 24.8874 25.9384C23.5183 27.1643 21.9104 28.0935 20.1647 28.6678C19.6654 28.0426 19.0317 27.5381 18.3105 27.1916C17.5894 26.8451 16.7995 26.6656 15.9994 26.6664C15.1993 26.6658 14.4092 26.8455 13.6881 27.1922C12.967 27.5389 12.3333 28.0437 11.8341 28.6691C10.0884 28.0948 8.48051 27.1656 7.11141 25.9398C7.40295 25.195 7.52293 24.3941 7.46246 23.5966C7.40198 22.7991 7.16259 22.0254 6.76208 21.3331C6.36247 20.6399 5.81175 20.0457 5.15086 19.5946C4.48997 19.1436 3.73591 18.8473 2.94475 18.7278C2.5705 16.9288 2.5705 15.0721 2.94475 13.2731C3.73603 13.1535 4.49017 12.857 5.15106 12.4057C5.81196 11.9544 6.36262 11.3599 6.76208 10.6664C7.16239 9.9743 7.40166 9.20089 7.46214 8.40362C7.52261 7.60635 7.40274 6.8057 7.11141 6.0611V6.05977ZM17.9994 19.4624C18.458 19.2017 18.8605 18.8528 19.1837 18.4359C19.5069 18.019 19.7444 17.5423 19.8827 17.0332C20.0209 16.5241 20.057 15.9927 19.989 15.4696C19.921 14.9465 19.7502 14.442 19.4865 13.9851C19.2227 13.5283 18.8712 13.1281 18.4521 12.8077C18.0331 12.4873 17.5548 12.2529 17.0448 12.118C16.5348 11.9832 16.0032 11.9506 15.4805 12.022C14.9579 12.0935 14.4545 12.2676 13.9994 12.5344C13.0882 13.0686 12.4252 13.9416 12.1553 14.9628C11.8853 15.9839 12.0302 17.0705 12.5583 17.9852C13.0865 18.9 13.955 19.5687 14.9744 19.8454C15.9937 20.1222 17.0812 19.9845 17.9994 19.4624V19.4624Z" fill="#D62214"/>
</svg>
