<svg width="41" height="52" viewBox="0 0 41 52" fill="none" xmlns="http://www.w3.org/2000/svg">
<path d="M7 41.0005V31.0005H10.2053C11.4199 31.0005 12.2117 31.0505 12.5806 31.1506C13.1474 31.3006 13.622 31.628 14.0044 32.1328C14.3868 32.633 14.578 33.2811 14.578 34.0769C14.578 34.6908 14.4678 35.2069 14.2473 35.6253C14.0269 36.0437 13.7457 36.3734 13.4038 36.6144C13.0664 36.8509 12.7223 37.0078 12.3714 37.0851C11.8945 37.1806 11.204 37.2283 10.2998 37.2283H8.9974V41.0005H7ZM8.9974 32.6922V35.5298H10.0906C10.8778 35.5298 11.4042 35.4775 11.6696 35.3729C11.935 35.2683 12.142 35.1046 12.2904 34.8818C12.4434 34.659 12.5199 34.3998 12.5199 34.1042C12.5199 33.7404 12.4141 33.4402 12.2027 33.2038C11.9913 32.9673 11.7236 32.8195 11.3997 32.7604C11.1613 32.7149 10.6822 32.6922 9.96237 32.6922H8.9974Z" fill="#014A93"/>
<path d="M16.211 31.0005H19.8617C20.6849 31.0005 21.3125 31.0642 21.7444 31.1915C22.3247 31.3643 22.8218 31.6712 23.2357 32.1124C23.6495 32.5535 23.9644 33.0946 24.1804 33.7358C24.3963 34.3725 24.5043 35.1592 24.5043 36.096C24.5043 36.9191 24.4031 37.6285 24.2006 38.2242C23.9532 38.9518 23.6001 39.5407 23.1412 39.9909C22.7948 40.332 22.3269 40.598 21.7376 40.789C21.2967 40.93 20.7074 41.0005 19.9696 41.0005H16.211V31.0005ZM18.2084 32.6922V39.3156H19.6997C20.2575 39.3156 20.6602 39.2838 20.9076 39.2201C21.2315 39.1383 21.4992 38.9996 21.7106 38.804C21.9266 38.6085 22.102 38.2879 22.237 37.8422C22.3719 37.392 22.4394 36.7804 22.4394 36.0073C22.4394 35.2342 22.3719 34.6408 22.237 34.227C22.102 33.8131 21.9131 33.4903 21.6701 33.2583C21.4272 33.0264 21.119 32.8695 20.7457 32.7877C20.4667 32.724 19.9201 32.6922 19.1059 32.6922H18.2084Z" fill="#014A93"/>
<path d="M26.2183 41.0005V31.0005H33V32.6922H28.2157V35.0592H32.3454V36.7508H28.2157V41.0005H26.2183Z" fill="#014A93"/>
<path d="M22.75 3.04248V18.7508H38.5" stroke="#014A93" stroke-width="2" stroke-linecap="round" stroke-linejoin="round"/>
<path d="M5.83333 50.1668H34.8333C37.5028 50.1668 39.6667 48.0029 39.6667 45.3335V20.7522C39.6667 19.4703 39.1575 18.2409 38.251 17.3345L24.1657 3.24916C23.2592 2.34271 22.0298 1.8335 20.748 1.8335H5.83333C3.16396 1.8335 1 3.99745 1 6.66683C1 9.33621 1 45.3335 1 45.3335C1 48.0029 3.16396 50.1668 5.83333 50.1668Z" stroke="#014A93" stroke-width="2" stroke-linecap="round" stroke-linejoin="round"/>
</svg>
