<svg width="80" height="80" viewBox="0 0 80 80" fill="none" xmlns="http://www.w3.org/2000/svg">
<path d="M75.3125 37.6562V23.5938H70.625V14.2188H65.9375V4.84375H11.7188C5.25703 4.84375 0 10.1008 0 16.5625V63.4375C0 69.8992 5.25703 75.1562 11.7188 75.1562H75.3125V61.0938H80V37.6562H75.3125ZM11.7188 9.53125H61.25V14.2188H9.375V23.1906C6.64703 22.2231 4.6875 19.618 4.6875 16.5625C4.6875 12.6855 7.84172 9.53125 11.7188 9.53125ZM65.9375 18.9062V23.5938H14.0625V18.9062H65.9375ZM70.625 70.4688H11.7188C7.84172 70.4688 4.6875 67.3145 4.6875 63.4375V25.9311C6.6475 27.4058 9.08266 28.2812 11.7188 28.2812H70.625V37.6562H63.5938C57.132 37.6562 51.875 42.9133 51.875 49.375C51.875 55.8367 57.132 61.0938 63.5938 61.0938H70.625V70.4688ZM75.3125 56.4062H63.5938C59.7167 56.4062 56.5625 53.252 56.5625 49.375C56.5625 45.498 59.7167 42.3438 63.5938 42.3438H75.3125V56.4062Z" fill="#014A93"/>
<path d="M65.9375 47.0312H61.25V51.7188H65.9375V47.0312Z" fill="#014A93"/>
</svg>
