<svg width="173" height="41" viewBox="0 0 173 41" fill="none" xmlns="http://www.w3.org/2000/svg">
<path d="M57.96 26.5H55.746V13.9C56.01 13.9 56.688 13.894 57.78 13.882C58.884 13.87 59.484 13.864 59.58 13.864C62.628 13.864 64.152 15.16 64.152 17.752C64.152 18.724 63.906 19.516 63.414 20.128C62.922 20.728 62.358 21.136 61.722 21.352L65.664 26.5H62.982L59.508 21.784H57.96V26.5ZM59.472 15.934C59.256 15.934 58.752 15.946 57.96 15.97V19.714H59.4C60.084 19.714 60.654 19.546 61.11 19.21C61.578 18.862 61.812 18.382 61.812 17.77C61.812 16.546 61.032 15.934 59.472 15.934ZM72.6154 24.232L73.2094 25.69C72.4174 26.362 71.3854 26.698 70.1134 26.698C68.8054 26.698 67.7494 26.308 66.9454 25.528C66.1534 24.748 65.7574 23.722 65.7574 22.45C65.7574 21.238 66.1474 20.23 66.9274 19.426C67.7074 18.61 68.7454 18.202 70.0414 18.202C71.1094 18.202 72.0154 18.556 72.7594 19.264C73.5034 19.96 73.8754 20.86 73.8754 21.964C73.8754 22.42 73.8334 22.792 73.7494 23.08H67.8994C67.9834 23.68 68.2474 24.148 68.6914 24.484C69.1354 24.808 69.6814 24.97 70.3294 24.97C71.2414 24.97 72.0034 24.724 72.6154 24.232ZM69.9514 19.93C68.7754 19.93 68.0674 20.518 67.8274 21.694H71.8054C71.8174 21.19 71.6554 20.77 71.3194 20.434C70.9834 20.098 70.5274 19.93 69.9514 19.93ZM81.1959 30.1V26.086C80.5599 26.494 79.8939 26.698 79.1979 26.698C77.9139 26.698 76.8879 26.314 76.1199 25.546C75.3639 24.766 74.9859 23.734 74.9859 22.45C74.9859 21.25 75.4239 20.242 76.2999 19.426C77.1759 18.61 78.2859 18.202 79.6299 18.202C81.0219 18.202 82.2339 18.526 83.2659 19.174V30.1H81.1959ZM79.4679 24.772C80.1639 24.772 80.7399 24.526 81.1959 24.034V20.542C80.6439 20.278 80.1159 20.146 79.6119 20.146C78.8559 20.146 78.2619 20.38 77.8299 20.848C77.4099 21.304 77.1999 21.868 77.1999 22.54C77.1999 23.188 77.4039 23.722 77.8119 24.142C78.2319 24.562 78.7839 24.772 79.4679 24.772ZM92.8706 18.4V26.5H90.8006V25.51C90.1526 26.302 89.2886 26.698 88.2086 26.698C87.3686 26.698 86.6846 26.416 86.1566 25.852C85.6286 25.288 85.3646 24.454 85.3646 23.35V18.4H87.4346V22.918C87.4346 24.154 87.9506 24.772 88.9826 24.772C89.6906 24.772 90.2966 24.442 90.8006 23.782V18.4H92.8706ZM101.531 24.232L102.125 25.69C101.333 26.362 100.301 26.698 99.0294 26.698C97.7214 26.698 96.6654 26.308 95.8614 25.528C95.0694 24.748 94.6734 23.722 94.6734 22.45C94.6734 21.238 95.0634 20.23 95.8434 19.426C96.6234 18.61 97.6614 18.202 98.9574 18.202C100.025 18.202 100.931 18.556 101.675 19.264C102.419 19.96 102.791 20.86 102.791 21.964C102.791 22.42 102.749 22.792 102.665 23.08H96.8154C96.8994 23.68 97.1634 24.148 97.6074 24.484C98.0514 24.808 98.5974 24.97 99.2454 24.97C100.157 24.97 100.919 24.724 101.531 24.232ZM98.8674 19.93C97.6914 19.93 96.9834 20.518 96.7434 21.694H100.721C100.733 21.19 100.571 20.77 100.235 20.434C99.8994 20.098 99.4434 19.93 98.8674 19.93ZM108.257 24.772C108.461 24.64 108.563 24.454 108.563 24.214C108.563 23.974 108.413 23.782 108.113 23.638C107.813 23.482 107.447 23.35 107.015 23.242C106.595 23.122 106.169 22.984 105.737 22.828C105.305 22.66 104.939 22.396 104.639 22.036C104.339 21.676 104.189 21.22 104.189 20.668C104.189 19.9 104.465 19.3 105.017 18.868C105.581 18.424 106.295 18.202 107.159 18.202C108.479 18.202 109.505 18.544 110.237 19.228L109.463 20.704C108.803 20.188 108.071 19.93 107.267 19.93C106.967 19.93 106.721 20.002 106.529 20.146C106.349 20.278 106.259 20.44 106.259 20.632C106.259 20.872 106.409 21.07 106.709 21.226C107.009 21.382 107.369 21.514 107.789 21.622C108.221 21.73 108.653 21.862 109.085 22.018C109.517 22.174 109.883 22.432 110.183 22.792C110.483 23.14 110.633 23.578 110.633 24.106C110.633 24.898 110.333 25.528 109.733 25.996C109.145 26.464 108.353 26.698 107.357 26.698C106.661 26.698 105.971 26.548 105.287 26.248C104.615 25.948 104.177 25.636 103.973 25.312L104.981 23.962C105.221 24.226 105.599 24.46 106.115 24.664C106.631 24.868 107.093 24.97 107.501 24.97C107.813 24.97 108.065 24.904 108.257 24.772ZM112.277 23.422V16.15H114.347V18.4H116.957V20.344H114.347V23.296C114.347 24.268 114.671 24.754 115.319 24.754C115.727 24.754 116.141 24.598 116.561 24.286L117.191 25.888C116.543 26.416 115.745 26.68 114.797 26.68C113.909 26.68 113.267 26.41 112.871 25.87C112.475 25.318 112.277 24.502 112.277 23.422ZM123.496 26.5V14.6H123.683C123.955 14.6 124.409 14.5943 125.043 14.583C125.678 14.5603 126.177 14.549 126.539 14.549C127.695 14.549 128.71 14.7077 129.582 15.025C130.455 15.331 131.152 15.7617 131.673 16.317C132.195 16.861 132.58 17.4787 132.829 18.17C133.09 18.85 133.22 19.5867 133.22 20.38C133.22 22.1707 132.625 23.644 131.435 24.8C130.257 25.956 128.579 26.534 126.403 26.534C126.12 26.534 125.672 26.5283 125.06 26.517C124.448 26.5057 123.978 26.5 123.649 26.5H123.496ZM126.505 15.433C126.245 15.433 126.001 15.4387 125.774 15.45C125.548 15.45 125.304 15.4557 125.043 15.467C124.794 15.4783 124.59 15.484 124.431 15.484V25.616C125.723 25.6387 126.392 25.65 126.437 25.65C128.285 25.65 129.713 25.1627 130.721 24.188C131.73 23.202 132.234 21.9327 132.234 20.38C132.234 18.918 131.753 17.728 130.789 16.81C129.826 15.892 128.398 15.433 126.505 15.433ZM141.456 24.885L141.745 25.565C141.053 26.2903 140.113 26.653 138.923 26.653C137.71 26.653 136.73 26.2903 135.982 25.565C135.234 24.8397 134.86 23.8763 134.86 22.675C134.86 21.519 135.2 20.567 135.88 19.819C136.571 19.071 137.523 18.697 138.736 18.697C139.733 18.697 140.56 19.0143 141.218 19.649C141.875 20.2837 142.204 21.1167 142.204 22.148C142.204 22.42 142.187 22.658 142.153 22.862H135.846C135.88 23.78 136.18 24.5053 136.747 25.038C137.313 25.5593 138.056 25.82 138.974 25.82C140.028 25.82 140.855 25.5083 141.456 24.885ZM138.651 19.53C137.823 19.53 137.16 19.7737 136.662 20.261C136.163 20.737 135.874 21.3603 135.795 22.131H141.303C141.291 21.3263 141.048 20.6917 140.572 20.227C140.096 19.7623 139.455 19.53 138.651 19.53ZM148.28 24.494C148.28 24.1427 148.132 23.8593 147.838 23.644C147.554 23.4287 147.203 23.2587 146.784 23.134C146.376 23.0093 145.962 22.8733 145.543 22.726C145.123 22.5673 144.766 22.3237 144.472 21.995C144.188 21.6663 144.047 21.2413 144.047 20.72C144.047 20.108 144.273 19.6207 144.727 19.258C145.18 18.884 145.775 18.697 146.512 18.697C147.566 18.697 148.365 18.9803 148.909 19.547L148.535 20.21C148.013 19.7227 147.345 19.479 146.529 19.479C146.064 19.479 145.69 19.598 145.407 19.836C145.123 20.074 144.982 20.363 144.982 20.703C144.982 21.077 145.123 21.3773 145.407 21.604C145.701 21.8307 146.053 22.012 146.461 22.148C146.88 22.2727 147.299 22.4087 147.719 22.556C148.138 22.7033 148.489 22.9357 148.773 23.253C149.067 23.559 149.215 23.9613 149.215 24.46C149.215 25.174 148.948 25.718 148.416 26.092C147.894 26.466 147.243 26.653 146.461 26.653C145.939 26.653 145.418 26.5397 144.897 26.313C144.375 26.0863 144.024 25.8313 143.843 25.548L144.336 24.97C144.54 25.2307 144.863 25.446 145.305 25.616C145.747 25.786 146.166 25.871 146.563 25.871C147.039 25.871 147.441 25.752 147.77 25.514C148.11 25.276 148.28 24.936 148.28 24.494ZM151.849 26.5V18.85H152.733V26.5H151.849ZM151.696 15.875C151.696 15.705 151.758 15.569 151.883 15.467C152.008 15.365 152.155 15.314 152.325 15.314C152.472 15.314 152.603 15.3707 152.716 15.484C152.841 15.586 152.903 15.7163 152.903 15.875C152.903 16.0677 152.846 16.2207 152.733 16.334C152.62 16.4473 152.484 16.504 152.325 16.504C152.144 16.504 151.991 16.4473 151.866 16.334C151.753 16.2207 151.696 16.0677 151.696 15.875ZM154.752 27.622C154.752 27.0327 154.956 26.5453 155.364 26.16C155.783 25.7633 156.361 25.4857 157.098 25.327C156.928 25.123 156.843 24.8793 156.843 24.596C156.843 24.3013 156.939 24.0463 157.132 23.831C156.633 23.6157 156.242 23.2927 155.959 22.862C155.675 22.4313 155.534 21.944 155.534 21.4C155.534 20.618 155.811 19.972 156.367 19.462C156.922 18.952 157.653 18.697 158.56 18.697C159.285 18.697 159.925 18.8897 160.481 19.275H160.498L162.674 18.697V19.53L161.127 19.921C161.433 20.3743 161.586 20.8673 161.586 21.4C161.586 22.1707 161.302 22.8167 160.736 23.338C160.18 23.848 159.455 24.103 158.56 24.103C158.265 24.103 158.01 24.0803 157.795 24.035C157.693 24.1823 157.642 24.3693 157.642 24.596C157.642 24.8453 157.715 25.0493 157.863 25.208C158.18 25.1853 158.418 25.174 158.577 25.174C159.733 25.174 160.656 25.3893 161.348 25.82C162.05 26.2393 162.402 26.84 162.402 27.622C162.402 28.3927 162.05 28.9877 161.348 29.407C160.645 29.8263 159.721 30.036 158.577 30.036C157.421 30.036 156.491 29.8263 155.789 29.407C155.097 28.999 154.752 28.404 154.752 27.622ZM155.653 27.622C155.653 28.1207 155.913 28.5117 156.435 28.795C156.967 29.0897 157.681 29.237 158.577 29.237C159.472 29.237 160.18 29.0897 160.702 28.795C161.234 28.5117 161.501 28.1207 161.501 27.622C161.501 27.1233 161.234 26.7267 160.702 26.432C160.18 26.126 159.472 25.973 158.577 25.973C157.693 25.973 156.984 26.1203 156.452 26.415C155.919 26.7097 155.653 27.112 155.653 27.622ZM157.03 20.04C156.633 20.4027 156.435 20.856 156.435 21.4C156.435 21.944 156.633 22.3973 157.03 22.76C157.426 23.1227 157.936 23.304 158.56 23.304C159.183 23.304 159.693 23.1227 160.09 22.76C160.486 22.3973 160.685 21.944 160.685 21.4C160.685 20.856 160.481 20.4027 160.073 20.04C159.676 19.6773 159.172 19.496 158.56 19.496C157.948 19.496 157.438 19.6773 157.03 20.04ZM164.191 26.5V18.85H165.075V19.921C165.381 19.581 165.783 19.2977 166.282 19.071C166.792 18.833 167.307 18.714 167.829 18.714C168.883 18.714 169.676 18.9917 170.209 19.547C170.753 20.091 171.025 20.9523 171.025 22.131V26.5H170.141V22.301C170.141 20.465 169.302 19.547 167.625 19.547C167.126 19.547 166.644 19.6603 166.18 19.887C165.715 20.1137 165.347 20.3913 165.075 20.72V26.5H164.191Z" fill="white"/>
<rect y="20.5" width="28.2843" height="28.2843" rx="3" transform="rotate(-45 0 20.5)" fill="white"/>
<circle cx="20.0449" cy="20.5" r="11.4541" fill="#171717"/>
<rect x="12.8857" y="13.3418" width="14.4194" height="14.4194" rx="3" fill="white"/>
<circle cx="20.0245" cy="20.4796" r="4.99134" fill="#171717"/>
<rect x="17.8965" y="20.5" width="3.23534" height="3.23534" rx="1" transform="rotate(-45 17.8965 20.5)" fill="white"/>
</svg>
