<svg width="24" height="15" viewBox="0 0 24 15" fill="none" xmlns="http://www.w3.org/2000/svg">
<path d="M23.4497 1.44808C23.6174 0.901109 23.4497 0.5 22.6568 0.5H20.0303C19.362 0.5 19.0566 0.847001 18.8889 1.22811C18.8889 1.22811 17.5535 4.4264 15.6611 6.50017C15.0503 7.1036 14.7712 7.29415 14.4382 7.29415C14.2718 7.29415 14.0298 7.1036 14.0298 6.55663V1.44808C14.0298 0.791716 13.837 0.5 13.2801 0.5H9.15281C8.73601 0.5 8.48449 0.803479 8.48449 1.09284C8.48449 1.71391 9.43067 1.85742 9.52769 3.60771V7.40472C9.52769 8.23635 9.37558 8.38809 9.04022 8.38809C8.15033 8.38809 5.9849 5.17804 4.69977 1.50336C4.44945 0.789363 4.19673 0.501177 3.52602 0.501177H0.900669C0.149712 0.501177 0 0.848177 0 1.22929C0 1.91388 0.889889 5.30155 4.14523 9.78197C6.31546 12.8415 9.37079 14.5 12.1542 14.5C13.8226 14.5 14.0286 14.1318 14.0286 13.4966V11.1841C14.0286 10.4477 14.1879 10.2995 14.7161 10.2995C15.1042 10.2995 15.7725 10.4924 17.3307 11.9663C19.1105 13.7142 19.4051 14.4988 20.4052 14.4988H23.0305C23.7803 14.4988 24.1552 14.1306 23.9396 13.4037C23.7036 12.6803 22.8533 11.6275 21.725 10.3819C21.1118 9.6714 20.1956 8.90682 19.9165 8.52453C19.5273 8.03168 19.6398 7.81407 19.9165 7.37649C19.9177 7.37767 23.1168 2.95253 23.4497 1.44808Z" fill="white"/>
</svg>
